<?xml version="1.0" standalone="no"?>
<!DOCTYPE svg PUBLIC "-//W3C//DTD SVG 20010904//EN"
 "http://www.w3.org/TR/2001/REC-SVG-20010904/DTD/svg10.dtd">
<svg version="1.0" xmlns="http://www.w3.org/2000/svg"
 width="400.000000pt" height="348.000000pt" viewBox="0 0 400.000000 348.000000"
 preserveAspectRatio="xMidYMid meet">

<g transform="translate(0.000000,348.000000) scale(0.100000,-0.100000)"
fill="#000000" stroke="none">
<path d="M3205 2971 c-3 -6 -38 -31 -78 -57 -39 -27 -237 -160 -440 -297
l-367 -249 6 -34 c8 -44 -3 -43 -57 4 -65 56 -137 101 -174 108 -40 7 -115
-23 -147 -61 -17 -18 -40 -28 -82 -36 -69 -12 -105 -36 -142 -95 -17 -27 -41
-49 -67 -60 -60 -27 -87 -53 -108 -101 -10 -24 -43 -66 -75 -96 l-57 -53 -7
-85 c-6 -72 -4 -97 17 -173 13 -49 23 -94 21 -101 -2 -7 -78 -78 -170 -158
l-168 -146 138 -3 c117 -3 137 -5 136 -19 -1 -13 -88 -134 -251 -348 -21 -28
-63 -84 -93 -126 -30 -42 -71 -97 -90 -123 -72 -96 -140 -193 -140 -198 0 -5
28 15 284 207 98 74 200 150 226 169 26 19 85 64 130 100 45 36 92 72 104 80
12 8 47 35 79 59 85 65 92 58 82 -87 -5 -64 -9 -139 -9 -167 l-1 -50 66 -21
c149 -49 335 -49 478 0 71 24 181 81 219 113 l20 18 -35 120 c-19 66 -42 143
-50 170 -9 28 -21 74 -28 103 l-13 54 52 60 c230 272 245 300 229 409 -6 38
-21 89 -33 114 l-22 46 28 22 c39 30 117 100 157 139 18 18 70 64 115 103 45
38 82 72 82 75 0 3 -54 4 -120 3 -99 -1 -120 1 -120 13 0 13 212 301 377 514
76 98 114 150 109 150 -3 0 -7 -4 -11 -9z m-243 -243 c-46 -58 -362 -478 -362
-482 0 -3 49 -7 108 -8 l109 -3 -135 -122 -135 -122 -39 20 c-36 18 -38 22
-38 65 0 61 -19 101 -74 154 -79 77 -88 66 262 303 168 114 308 207 310 207 3
0 0 -6 -6 -12z m-1294 -1180 c58 -58 66 -63 106 -63 31 0 54 7 76 23 29 22 33
23 56 8 13 -9 24 -20 24 -24 0 -4 -30 -32 -66 -62 -36 -30 -62 -55 -58 -56 5
-1 27 -5 49 -9 39 -7 39 -7 18 -23 -12 -10 -133 -105 -270 -213 -337 -266
-563 -439 -563 -433 0 3 106 145 235 317 l235 312 -127 5 -127 5 135 115 c160
137 188 160 203 160 6 0 39 -28 74 -62z m498 -433 c7 -39 -2 -73 -16 -59 -10
11 -21 75 -14 86 11 18 23 6 30 -27z"/>
</g>
</svg>
